<svg width="100" height="99" viewBox="0 0 100 99" fill="none" xmlns="http://www.w3.org/2000/svg">
<path fill-rule="evenodd" clip-rule="evenodd" d="M2.03508 0H98.2013C98.632 0.00822449 99.0426 0.183578 99.3463 0.489014C99.65 0.794441 99.8231 1.20601 99.8289 1.63672V43.6912C99.8289 45.8008 96.5555 45.7962 96.5555 43.6912V3.27343H3.6718V85.9276H70.9227C73.0322 85.9276 73.0277 89.2011 70.9227 89.2011H2.03508C1.60283 89.1952 1.18993 89.0209 0.884251 88.7152C0.578572 88.4095 0.404255 87.9966 0.398365 87.5643V1.63672C0.404255 1.20446 0.578572 0.791565 0.884251 0.485886C1.18993 0.180206 1.60283 0.00588226 2.03508 0ZM42.8348 34.0983V45.8372C42.8648 45.996 42.8785 46.1575 42.8757 46.3191V70.6334C42.8937 72.7128 42.3551 74.759 41.3159 76.5601C40.2767 78.3612 38.7746 79.8515 36.9654 80.8766C35.0647 81.9414 32.915 82.4812 30.7367 82.4405C28.6322 82.4647 26.565 81.884 24.7809 80.7674C23.0176 79.6713 21.576 78.1277 20.6027 76.2937C20.3681 75.9212 20.2378 75.4926 20.2254 75.0526C20.2179 74.768 20.2774 74.4856 20.399 74.2281C20.5206 73.9707 20.7009 73.7454 20.9255 73.5704C21.312 73.224 21.8072 73.023 22.3258 73.0021C22.7175 73.001 23.1012 73.1131 23.4306 73.3249C23.7789 73.5391 24.0867 73.8131 24.3399 74.1342C25.0042 75.2976 25.9265 76.293 27.036 77.0439C28.1386 77.7698 29.435 78.1454 30.7549 78.1214C32.1213 78.1485 33.4705 77.8128 34.6649 77.1485C35.7846 76.5141 36.7151 75.5929 37.3609 74.4797C38.0355 73.3084 38.3796 71.9759 38.3566 70.6243V50.2654C37.7201 50.5473 37.0699 50.7837 36.3925 51.0019C34.4145 51.6346 32.3497 51.9537 30.273 51.9476C27.6384 51.9739 25.0253 51.4699 22.5895 50.4655C20.2777 49.5068 18.1734 48.1096 16.3927 46.3509C14.6128 44.589 13.2017 42.4902 12.2418 40.1769C11.2406 37.7592 10.7365 35.1646 10.7597 32.5479C10.7331 29.9133 11.2372 27.3002 12.2418 24.8645C13.201 22.554 14.6079 20.4561 16.3815 18.6919C18.1551 16.9276 20.2603 15.5319 22.5759 14.585C25.0161 13.5984 27.6274 13.1039 30.2594 13.1301C32.0477 13.1246 33.8304 13.3322 35.5696 13.7484C37.2156 14.1366 38.79 14.7826 40.2343 15.6625C40.5712 15.8206 40.8463 16.086 41.0162 16.4172C41.1754 16.7347 41.2579 17.085 41.2572 17.4401C41.2627 17.7288 41.2109 18.0156 41.1047 18.2841C40.9986 18.5525 40.8403 18.7973 40.6389 19.0041C40.4594 19.2057 40.2396 19.3673 39.9936 19.4785C39.7477 19.5897 39.4812 19.648 39.2113 19.6497C39.0004 19.6502 38.791 19.6133 38.593 19.5406L37.9747 19.3269C36.8246 18.7423 35.6141 18.2849 34.3648 17.963C33.0287 17.6161 31.6534 17.4434 30.273 17.4492C27.6528 17.3977 25.0674 18.0549 22.7899 19.3513C20.5124 20.6477 18.6273 22.5352 17.3339 24.8145C16.0139 27.1735 15.344 29.8407 15.3925 32.5434C15.3537 35.2306 16.0233 37.8806 17.3339 40.2269C18.5931 42.4679 20.4258 44.3336 22.6441 45.6326C24.9576 46.9808 27.5956 47.6709 30.273 47.6285C31.7742 47.6208 33.2683 47.4222 34.7194 47.0374C35.9428 46.7342 37.1278 46.2934 38.252 45.7235V36.2033H30.8686C30.2965 36.2033 29.7477 35.976 29.3431 35.5714C28.9386 35.1669 28.7113 34.6181 28.7113 34.046C28.7113 33.4738 28.9386 32.9251 29.3431 32.5206C29.7477 32.116 30.2965 31.8887 30.8686 31.8887H40.6798C40.9717 31.8768 41.2627 31.9283 41.5327 32.0397C41.8027 32.1512 42.0453 32.3199 42.2438 32.5343C42.636 32.9594 42.8478 33.5201 42.8348 34.0983ZM71.9684 59.9448C73.0299 60.7052 73.8253 61.7805 74.2416 63.0182C74.6704 64.4098 74.8609 65.8639 74.8053 67.3191V78.8307C74.8115 79.0487 74.7745 79.2657 74.6964 79.4693C74.6184 79.673 74.5009 79.8592 74.3507 80.0173C74.1987 80.1725 74.0173 80.2958 73.8171 80.38C73.6168 80.4641 73.4018 80.5075 73.1845 80.5075C72.9673 80.5075 72.7523 80.4641 72.552 80.38C72.3518 80.2958 72.1704 80.1725 72.0184 80.0173C71.8681 79.8592 71.7506 79.673 71.6726 79.4693C71.5946 79.2657 71.5576 79.0487 71.5637 78.8307V67.4009C71.5825 66.4461 71.4284 65.4958 71.1091 64.5958C70.8096 63.7833 70.2665 63.0831 69.5542 62.5908C68.6653 62.0405 67.6293 61.7756 66.5854 61.8315C65.4871 61.82 64.403 62.0809 63.4301 62.5908C62.5207 63.0644 61.7404 63.7526 61.1569 64.5958C60.5868 65.4192 60.2865 66.3994 60.2977 67.4009V78.8216C60.3036 79.0395 60.2664 79.2565 60.1884 79.4601C60.1104 79.6637 59.993 79.85 59.843 80.0082C59.691 80.1634 59.5096 80.2867 59.3094 80.3709C59.1091 80.455 58.8941 80.4984 58.6769 80.4984C58.4596 80.4984 58.2446 80.455 58.0443 80.3709C57.8441 80.2867 57.6627 80.1634 57.5107 80.0082C57.3605 79.8501 57.243 79.6639 57.165 79.4603C57.0869 79.2566 57.0499 79.0396 57.0561 78.8216V60.9632C57.0536 60.6345 57.1494 60.3125 57.3312 60.0386C57.5129 59.7647 57.7723 59.5513 58.0761 59.4257C58.3799 59.3002 58.7143 59.2683 59.0364 59.334C59.3585 59.3997 59.6536 59.5602 59.8839 59.7947C60.0334 59.9496 60.1506 60.1327 60.2286 60.3333C60.3067 60.5339 60.3441 60.748 60.3386 60.9632V62.8227L60.3656 62.7774C60.3962 62.7257 60.4261 62.6755 60.4613 62.6226C60.969 61.8813 61.5904 61.2246 62.3026 60.6768C63.0482 60.1019 63.8757 59.6421 64.7577 59.3128C65.661 58.9702 66.6195 58.7961 67.5856 58.7991C69.4436 58.7991 70.9045 59.181 71.9684 59.9448ZM99.1106 59.1446C98.9555 58.9902 98.7697 58.87 98.5654 58.7917C98.361 58.7134 98.1426 58.6788 97.924 58.6899C97.708 58.6862 97.4935 58.7261 97.2933 58.807C97.0931 58.888 96.9111 59.0084 96.7584 59.1611C96.6057 59.3138 96.4853 59.4957 96.4043 59.696C96.3234 59.8962 96.2836 60.1107 96.2873 60.3267V62.1862C95.8399 61.5526 95.3093 60.9822 94.7097 60.4903C93.918 59.8387 93.0259 59.3198 92.0682 58.9536C91.0091 58.5484 89.8832 58.3463 88.7493 58.3581C86.9511 58.3253 85.1817 58.8115 83.6527 59.7584C82.1325 60.7204 80.8959 62.07 80.0701 63.6683C79.1942 65.446 78.7386 67.4013 78.7386 69.3832C78.7386 71.365 79.1942 73.3203 80.0701 75.098C80.9029 76.7048 82.147 78.0618 83.6754 79.0307C85.22 80 87.0124 80.5006 88.8356 80.4719C89.7469 80.4697 90.6521 80.3239 91.518 80.04C92.3789 79.7672 93.1941 79.3672 93.9367 78.8534C94.6319 78.3736 95.2458 77.7857 95.7553 77.1121C95.9582 76.8391 96.1362 76.5485 96.2873 76.2437V78.5852C96.327 79.4711 96.184 80.3557 95.8672 81.1839C95.5504 82.0122 95.0667 82.7665 94.446 83.3998C93.2184 84.6122 91.4438 85.2184 89.1221 85.2184C88.4475 85.2153 87.7752 85.1391 87.1171 84.9911C86.5 84.8611 85.8924 84.6894 85.2985 84.4773C84.7802 84.2864 84.3847 84.15 84.1119 84.0682C83.648 83.8552 83.1484 83.7303 82.6389 83.6999C82.4403 83.7056 82.2463 83.761 82.0748 83.8611C81.9032 83.9611 81.7595 84.1027 81.6568 84.2728C81.5629 84.4127 81.5012 84.5717 81.476 84.7383C81.4508 84.905 81.4629 85.0751 81.5113 85.2366C81.6473 85.6209 81.9167 85.9436 82.2706 86.1459C82.6408 86.6031 83.1397 86.9389 83.7027 87.1097C84.5587 87.4517 85.4424 87.7194 86.3442 87.9099C87.2392 88.1163 88.1537 88.226 89.0721 88.2372C90.8929 88.2623 92.6968 87.8851 94.355 87.1324C95.9125 86.4168 97.2283 85.2637 98.1422 83.8136C99.0848 82.3375 99.5562 80.481 99.5562 78.2442V60.313C99.5628 60.0985 99.5269 59.8847 99.4504 59.6842C99.3739 59.4836 99.2584 59.3002 99.1106 59.1446ZM95.5462 73.5432C94.9547 74.7 94.0667 75.679 92.9729 76.3801C91.8445 77.0868 90.5351 77.4501 89.2039 77.4258C87.8701 77.4514 86.5585 77.0812 85.4349 76.362C84.3345 75.6442 83.4436 74.6482 82.8525 73.475C82.2328 72.1951 81.9109 70.7915 81.9109 69.3695C81.9109 67.9475 82.2328 66.544 82.8525 65.2641C83.4449 64.1026 84.3363 63.1201 85.4349 62.418C86.5631 61.7109 87.8727 61.3475 89.2039 61.3723C90.5321 61.3469 91.8398 61.7019 92.9729 62.3953C94.0736 63.0871 94.9661 64.0644 95.5553 65.2232C96.2045 66.5185 96.5276 67.9528 96.4964 69.4014C96.5255 70.8381 96.2024 72.2601 95.5553 73.5432H95.5462ZM51.4051 79.4693C51.4831 79.2657 51.5201 79.0486 51.514 78.8307L51.5276 60.6449C51.5276 60.2102 51.3549 59.7934 51.0476 59.486C50.7402 59.1786 50.3233 59.0059 49.8886 59.0059C49.4539 59.0059 49.037 59.1786 48.7296 59.486C48.4223 59.7934 48.2496 60.2102 48.2496 60.6449V78.8307C48.2416 79.2702 48.4046 79.6956 48.7043 80.0173C48.8547 80.1801 49.0388 80.3083 49.2437 80.3931C49.4485 80.4779 49.6693 80.5172 49.8909 80.5083C50.1092 80.5131 50.3261 80.4718 50.5274 80.3872C50.7287 80.3026 50.9099 80.1766 51.0593 80.0173C51.2095 79.8592 51.327 79.673 51.4051 79.4693ZM49.8772 54.6027C51.6349 54.6027 53.0598 53.1778 53.0598 51.4202C53.0598 49.6625 51.6349 48.2377 49.8772 48.2377C48.1196 48.2377 46.6947 49.6625 46.6947 51.4202C46.6947 53.1778 48.1196 54.6027 49.8772 54.6027ZM82.6764 16.3217C82.4321 16.2173 82.1679 16.1676 81.9023 16.1762C81.6331 16.1588 81.3634 16.2044 81.1148 16.3094C80.8662 16.4143 80.6455 16.5758 80.4702 16.7809C80.1391 17.1952 79.968 17.7148 79.9883 18.2448V38.2492C80.0177 39.9896 79.5543 41.7028 78.6516 43.1911C77.792 44.6048 76.5854 45.7754 75.1463 46.5919C73.7027 47.4158 72.0665 47.8425 70.4044 47.8285C68.7704 47.8357 67.1636 47.4106 65.7471 46.5961C64.3306 45.7816 63.1548 44.6069 62.339 43.1911C61.4899 41.6848 61.0612 39.9779 61.0978 38.2492V18.2448C61.1013 17.9701 61.0468 17.6977 60.9379 17.4455C60.829 17.1933 60.6682 16.9668 60.4659 16.7809C60.1751 16.4819 59.8013 16.2769 59.3928 16.1924C58.9843 16.1079 58.5599 16.1477 58.1743 16.3067C57.7887 16.4658 57.4596 16.7367 57.2295 17.0846C56.9994 17.4325 56.8788 17.8414 56.8833 18.2585V38.2628C56.844 40.6969 57.4528 43.0976 58.6473 45.2188C59.7989 47.2348 61.4651 48.9089 63.4756 50.0699C65.5823 51.2828 67.9784 51.9019 70.4089 51.8612C72.8148 51.8995 75.1854 51.2802 77.265 50.0699C79.2649 48.8937 80.9241 47.2171 82.0796 45.2052C83.2904 43.0894 83.9092 40.6866 83.8709 38.2492V18.2448C83.883 17.7034 83.6841 17.1784 83.3163 16.7809C83.1391 16.5829 82.9206 16.4262 82.6764 16.3217ZM1.58046 98.7486L34.3648 98.8122L86.3897 98.9123L98.4195 98.935C100.525 98.935 100.529 95.6661 98.4195 95.6616L65.6352 95.5979L13.6103 95.4979L1.58046 95.4752C-0.524547 95.4752 -0.529094 98.744 1.58046 98.7486Z" fill="#00A19D"/>
  <style>
      path { fill: #00A19D; }
      @media (prefers-color-scheme: dark) {
          path { fill: #FFF; }
      }
  </style>
</svg>
